<svg xmlns="http://www.w3.org/2000/svg" viewBox="0 0 300 300" width="300" height="300" role="img" aria-label="Immunology research peptide vial">
  <defs>
    <linearGradient id="bgI" x1="0" y1="0" x2="0" y2="1">
      <stop offset="0" stop-color="#F8FAFC"/><stop offset="1" stop-color="#E6F1F8"/>
    </linearGradient>
    <linearGradient id="vialI" x1="0" y1="0" x2="0" y2="1">
      <stop offset="0" stop-color="#FFFFFF"/><stop offset="1" stop-color="#E6EEF4"/>
    </linearGradient>
  </defs>
  <rect width="300" height="300" fill="url(#bgI)"/>
  <g transform="translate(110 60)">
    <rect x="6" y="0" width="68" height="14" rx="3" fill="#475569"/>
    <rect x="10" y="14" width="60" height="8" fill="#94A3B8"/>
    <path d="M4 22 H76 V160 a16 16 0 0 1 -16 16 H20 a16 16 0 0 1 -16 -16 Z" fill="url(#vialI)" stroke="#CBD5E1" stroke-width="1.5"/>
    <rect x="14" y="60" width="52" height="80" fill="#DCFCE7" opacity="0.85"/>
  </g>
  <!-- antibody Y -->
  <g transform="translate(150 110)" stroke="#16A34A" stroke-width="2.4" fill="none" stroke-linecap="round" stroke-linejoin="round">
    <line x1="0" y1="0" x2="0" y2="14"/>
    <line x1="0" y1="0" x2="-9" y2="-12"/>
    <line x1="0" y1="0" x2="9" y2="-12"/>
    <circle cx="-9" cy="-15" r="3" fill="#16A34A"/>
    <circle cx="9" cy="-15" r="3" fill="#16A34A"/>
  </g>
  <!-- shield row -->
  <g transform="translate(0 240)" fill="#005B8C" opacity="0.85">
    <path d="M50 0 L70 8 V22 Q70 36 50 44 Q30 36 30 22 V8 Z"/>
    <path d="M150 0 L170 8 V22 Q170 36 150 44 Q130 36 130 22 V8 Z"/>
    <path d="M250 0 L270 8 V22 Q270 36 250 44 Q230 36 230 22 V8 Z"/>
  </g>
  <g transform="translate(20 22)">
    <rect width="100" height="22" rx="11" fill="#005B8C"/>
    <text x="50" y="15" text-anchor="middle" font-family="Inter, system-ui, sans-serif" font-size="11" font-weight="700" fill="#fff" letter-spacing="0.08em">IMMUNOLOGY</text>
  </g>
</svg>
