<svg xmlns="http://www.w3.org/2000/svg" viewBox="0 0 300 300" width="300" height="300" role="img" aria-label="Cell signaling research peptide vial">
  <defs>
    <linearGradient id="bgS" x1="0" y1="0" x2="0" y2="1">
      <stop offset="0" stop-color="#F8FAFC"/><stop offset="1" stop-color="#E6F1F8"/>
    </linearGradient>
    <linearGradient id="vialS" x1="0" y1="0" x2="0" y2="1">
      <stop offset="0" stop-color="#FFFFFF"/><stop offset="1" stop-color="#E6EEF4"/>
    </linearGradient>
  </defs>
  <rect width="300" height="300" fill="url(#bgS)"/>
  <g transform="translate(110 60)">
    <rect x="6" y="0" width="68" height="14" rx="3" fill="#475569"/>
    <rect x="10" y="14" width="60" height="8" fill="#94A3B8"/>
    <path d="M4 22 H76 V160 a16 16 0 0 1 -16 16 H20 a16 16 0 0 1 -16 -16 Z" fill="url(#vialS)" stroke="#CBD5E1" stroke-width="1.5"/>
    <rect x="14" y="60" width="52" height="80" fill="#FEF3C7" opacity="0.85"/>
  </g>
  <!-- receptor -->
  <g transform="translate(150 110)" fill="#D97706">
    <circle r="6"/>
    <circle r="11" fill="none" stroke="#D97706" stroke-width="1.5" opacity="0.5"/>
    <circle r="16" fill="none" stroke="#D97706" stroke-width="1" opacity="0.3"/>
  </g>
  <!-- signal cascade arrows -->
  <g transform="translate(30 235)" stroke="#005B8C" stroke-width="2" fill="none" stroke-linecap="round" stroke-linejoin="round">
    <circle cx="20" cy="20" r="6" fill="#005B8C"/>
    <line x1="32" y1="20" x2="62" y2="20"/>
    <polyline points="56,14 62,20 56,26"/>
    <circle cx="80" cy="20" r="6" fill="#005B8C"/>
    <line x1="92" y1="20" x2="122" y2="20"/>
    <polyline points="116,14 122,20 116,26"/>
    <circle cx="140" cy="20" r="6" fill="#005B8C"/>
    <line x1="152" y1="20" x2="182" y2="20"/>
    <polyline points="176,14 182,20 176,26"/>
    <circle cx="200" cy="20" r="6" fill="#005B8C"/>
    <line x1="212" y1="20" x2="242" y2="20"/>
    <polyline points="236,14 242,20 236,26"/>
    <circle cx="260" cy="20" r="6" fill="#005B8C"/>
  </g>
  <g transform="translate(20 22)">
    <rect width="115" height="22" rx="11" fill="#005B8C"/>
    <text x="57.5" y="15" text-anchor="middle" font-family="Inter, system-ui, sans-serif" font-size="11" font-weight="700" fill="#fff" letter-spacing="0.08em">CELL SIGNALING</text>
  </g>
</svg>
