<svg xmlns="http://www.w3.org/2000/svg" viewBox="0 0 300 300" width="300" height="300" role="img" aria-label="Cancer and apoptosis research peptide vial">
  <defs>
    <linearGradient id="bgK" x1="0" y1="0" x2="0" y2="1">
      <stop offset="0" stop-color="#F8FAFC"/><stop offset="1" stop-color="#E6F1F8"/>
    </linearGradient>
    <linearGradient id="vialK" x1="0" y1="0" x2="0" y2="1">
      <stop offset="0" stop-color="#FFFFFF"/><stop offset="1" stop-color="#E6EEF4"/>
    </linearGradient>
  </defs>
  <rect width="300" height="300" fill="url(#bgK)"/>
  <g transform="translate(110 60)">
    <rect x="6" y="0" width="68" height="14" rx="3" fill="#475569"/>
    <rect x="10" y="14" width="60" height="8" fill="#94A3B8"/>
    <path d="M4 22 H76 V160 a16 16 0 0 1 -16 16 H20 a16 16 0 0 1 -16 -16 Z" fill="url(#vialK)" stroke="#CBD5E1" stroke-width="1.5"/>
    <rect x="14" y="60" width="52" height="80" fill="#EDE9FE" opacity="0.85"/>
  </g>
  <!-- cell cluster -->
  <g transform="translate(135 105)" fill="#7C3AED" opacity="0.7">
    <circle cx="0" cy="0" r="6"/>
    <circle cx="14" cy="6" r="5"/>
    <circle cx="6" cy="16" r="4"/>
    <circle cx="-8" cy="10" r="3.5"/>
  </g>
  <!-- DNA double helix -->
  <g transform="translate(40 230)" stroke="#005B8C" stroke-width="1.8" fill="none" stroke-linecap="round">
    <path d="M0 25 Q40 0 80 25 T160 25 T240 25"/>
    <path d="M0 25 Q40 50 80 25 T160 25 T240 25"/>
    <line x1="20" y1="14" x2="20" y2="36" opacity="0.5"/>
    <line x1="60" y1="14" x2="60" y2="36" opacity="0.5"/>
    <line x1="100" y1="14" x2="100" y2="36" opacity="0.5"/>
    <line x1="140" y1="14" x2="140" y2="36" opacity="0.5"/>
    <line x1="180" y1="14" x2="180" y2="36" opacity="0.5"/>
    <line x1="220" y1="14" x2="220" y2="36" opacity="0.5"/>
  </g>
  <g transform="translate(20 22)">
    <rect width="135" height="22" rx="11" fill="#005B8C"/>
    <text x="67.5" y="15" text-anchor="middle" font-family="Inter, system-ui, sans-serif" font-size="11" font-weight="700" fill="#fff" letter-spacing="0.08em">CANCER · APOPTOSIS</text>
  </g>
</svg>
